<mxfile host="65bd71144e">
    <diagram id="KT88BsJifRhrYlFeWKeb" name="ページ1">
        <mxGraphModel dx="1066" dy="614" grid="1" gridSize="10" guides="1" tooltips="1" connect="1" arrows="1" fold="1" page="1" pageScale="1" pageWidth="827" pageHeight="1169" math="0" shadow="0">
            <root>
                <mxCell id="0"/>
                <mxCell id="1" parent="0"/>
                <mxCell id="2" value="" style="group" vertex="1" connectable="0" parent="1">
                    <mxGeometry x="180" y="80" width="480" height="80" as="geometry"/>
                </mxCell>
                <mxCell id="3" value="" style="rounded=0;whiteSpace=wrap;html=1;" vertex="1" parent="2">
                    <mxGeometry width="480" height="80" as="geometry"/>
                </mxCell>
                <mxCell id="4" value="&lt;span style=&quot;font-size: 33px;&quot;&gt;&lt;b&gt;データ管理画面&lt;/b&gt;&lt;/span&gt;" style="text;html=1;align=center;verticalAlign=middle;whiteSpace=wrap;rounded=0;" vertex="1" parent="2">
                    <mxGeometry x="30" y="29.090909090909093" width="420" height="21.818181818181824" as="geometry"/>
                </mxCell>
                <mxCell id="5" value="■CSV入出力" style="text;html=1;align=center;verticalAlign=middle;whiteSpace=wrap;rounded=0;fontStyle=1;fontSize=26;" vertex="1" parent="1">
                    <mxGeometry x="100" y="210" width="150" height="30" as="geometry"/>
                </mxCell>
                <mxCell id="7" value="" style="rounded=0;whiteSpace=wrap;html=1;" vertex="1" parent="1">
                    <mxGeometry x="210" y="275" width="140" height="30" as="geometry"/>
                </mxCell>
                <mxCell id="8" value="&lt;span style=&quot;color: rgb(0, 0, 0); font-family: Helvetica; font-size: 15px; font-style: normal; font-variant-ligatures: normal; font-variant-caps: normal; font-weight: 400; letter-spacing: normal; orphans: 2; text-align: center; text-indent: 0px; text-transform: none; widows: 2; word-spacing: 0px; -webkit-text-stroke-width: 0px; white-space: normal; background-color: rgb(251, 251, 251); text-decoration-thickness: initial; text-decoration-style: initial; text-decoration-color: initial; float: none; display: inline !important;&quot;&gt;CSVファイル選択：&lt;/span&gt;" style="text;whiteSpace=wrap;html=1;" vertex="1" parent="1">
                    <mxGeometry x="70" y="275" width="170" height="40" as="geometry"/>
                </mxCell>
                <mxCell id="11" value="インポート" style="text;html=1;align=center;verticalAlign=middle;whiteSpace=wrap;rounded=0;fontSize=15;fontStyle=4" vertex="1" parent="1">
                    <mxGeometry x="300" y="260" width="270" height="60" as="geometry"/>
                </mxCell>
                <mxCell id="12" value="/エクスポート" style="text;html=1;align=center;verticalAlign=middle;whiteSpace=wrap;rounded=0;fontSize=15;fontStyle=4" vertex="1" parent="1">
                    <mxGeometry x="460" y="260" width="270" height="60" as="geometry"/>
                </mxCell>
                <mxCell id="13" value="■データバックアップ/復元" style="text;html=1;align=center;verticalAlign=middle;whiteSpace=wrap;rounded=0;fontStyle=1;fontSize=26;" vertex="1" parent="1">
                    <mxGeometry x="80" y="400" width="340" height="30" as="geometry"/>
                </mxCell>
                <mxCell id="14" value="" style="group" vertex="1" connectable="0" parent="1">
                    <mxGeometry x="120" y="450" width="376" height="60" as="geometry"/>
                </mxCell>
                <mxCell id="15" value="バックアップ作成：" style="text;html=1;align=center;verticalAlign=middle;whiteSpace=wrap;rounded=0;fontSize=15;" vertex="1" parent="14">
                    <mxGeometry x="-24" width="160" height="60" as="geometry"/>
                </mxCell>
                <mxCell id="16" value="" style="rounded=0;whiteSpace=wrap;html=1;" vertex="1" parent="14">
                    <mxGeometry x="136" y="15" width="240" height="30" as="geometry"/>
                </mxCell>
                <mxCell id="17" value="バックアップ実行" style="text;html=1;align=center;verticalAlign=middle;whiteSpace=wrap;rounded=0;" vertex="1" parent="14">
                    <mxGeometry x="204" y="15" width="104" height="30" as="geometry"/>
                </mxCell>
                <mxCell id="18" value="" style="group" vertex="1" connectable="0" parent="1">
                    <mxGeometry x="120" y="525" width="376" height="60" as="geometry"/>
                </mxCell>
                <mxCell id="19" value="復元：" style="text;html=1;align=center;verticalAlign=middle;whiteSpace=wrap;rounded=0;fontSize=15;" vertex="1" parent="18">
                    <mxGeometry x="-24" width="160" height="60" as="geometry"/>
                </mxCell>
                <mxCell id="23" value="" style="group" vertex="1" connectable="0" parent="18">
                    <mxGeometry x="136" y="15" width="240" height="30" as="geometry"/>
                </mxCell>
                <mxCell id="20" value="" style="rounded=0;whiteSpace=wrap;html=1;" vertex="1" parent="23">
                    <mxGeometry width="240" height="30" as="geometry"/>
                </mxCell>
                <mxCell id="21" value="バックアップファイル選択" style="text;html=1;align=center;verticalAlign=middle;whiteSpace=wrap;rounded=0;" vertex="1" parent="23">
                    <mxGeometry x="34" width="156" height="30" as="geometry"/>
                </mxCell>
                <mxCell id="24" value="" style="group" vertex="1" connectable="0" parent="1">
                    <mxGeometry x="560" y="540" width="130" height="30" as="geometry"/>
                </mxCell>
                <mxCell id="25" value="" style="rounded=0;whiteSpace=wrap;html=1;" vertex="1" parent="24">
                    <mxGeometry width="130" height="30" as="geometry"/>
                </mxCell>
                <mxCell id="26" value="復元実行" style="text;html=1;align=center;verticalAlign=middle;whiteSpace=wrap;rounded=0;" vertex="1" parent="24">
                    <mxGeometry x="18.416666666666668" width="84.5" height="30" as="geometry"/>
                </mxCell>
                <mxCell id="30" value="" style="group" vertex="1" connectable="0" parent="1">
                    <mxGeometry x="560" y="980" width="180" height="60" as="geometry"/>
                </mxCell>
                <mxCell id="28" value="" style="rounded=1;whiteSpace=wrap;html=1;container=0;" vertex="1" parent="30">
                    <mxGeometry width="180" height="60" as="geometry"/>
                </mxCell>
                <mxCell id="29" value="ホームに戻る" style="text;html=1;align=center;verticalAlign=middle;whiteSpace=wrap;rounded=0;fontSize=19;container=0;" vertex="1" parent="30">
                    <mxGeometry x="17" y="15" width="143" height="30" as="geometry"/>
                </mxCell>
                <mxCell id="31" value="■注意事項/ヘルプリンク" style="text;html=1;align=center;verticalAlign=middle;whiteSpace=wrap;rounded=0;fontStyle=1;fontSize=26;" vertex="1" parent="1">
                    <mxGeometry x="80" y="650" width="340" height="30" as="geometry"/>
                </mxCell>
                <mxCell id="33" value="&lt;div style=&quot;text-align: center;&quot;&gt;&lt;span style=&quot;background-color: transparent; font-size: 15px;&quot;&gt;説明文記載&lt;/span&gt;&lt;/div&gt;" style="text;whiteSpace=wrap;html=1;" vertex="1" parent="1">
                    <mxGeometry x="150" y="720" width="80" height="40" as="geometry"/>
                </mxCell>
            </root>
        </mxGraphModel>
    </diagram>
</mxfile>